<svg xmlns="http://www.w3.org/2000/svg" width="15" height="17" viewBox="0 0 15 17">
    <path fill="#042E5A" stroke="#042E5A" stroke-width=".5" d="M8.41 16H3.187C1.982 16 1 15.019 1 13.812v-7.41c0-1.206.981-2.187 2.188-2.187H8.41c1.206 0 2.188.981 2.188 2.187v7.41C10.598 15.02 9.616 16 8.41 16zM3.187 5.309c-.603 0-1.093.49-1.093 1.093v7.41c0 .604.49 1.094 1.094 1.094H8.41c.603 0 1.094-.49 1.094-1.094v-7.41c0-.603-.49-1.093-1.094-1.093H3.187zm10.598 6.136V3.187c0-1.206-.981-2.187-2.187-2.187h-6.07c-.303 0-.548.245-.548.547 0 .302.245.547.547.547h6.07c.604 0 1.094.49 1.094 1.094v8.257c0 .302.245.547.547.547.302 0 .547-.245.547-.547z"/>
</svg>
