<svg width="109" height="80" viewBox="0 0 109 80" xmlns="http://www.w3.org/2000/svg">
    <defs>
        <radialGradient cx="50%" cy="50%" fx="50%" fy="50%" r="50%" gradientTransform="matrix(0 1 -.99086 0 .995 0)" id="a">
            <stop stop-color="#008471" offset="0%"/>
            <stop stop-color="#103051" offset="100%"/>
        </radialGradient>
        <radialGradient cx="50%" cy="50%" fx="50%" fy="50%" r="50%" gradientTransform="matrix(0 1 -.991 0 .995 0)" id="b">
            <stop stop-color="#008471" offset="0%"/>
            <stop stop-color="#103051" offset="100%"/>
        </radialGradient>
    </defs>
    <g fill="none" fill-rule="evenodd">
        <g fill-rule="nonzero">
            <path d="M72.164 23c-6.08 0-11.686 3.248-14.664 8.496C54.522 26.248 48.915 23 42.836 23 33.538 23 26 31.54 26 40.745 26 63.868 57.5 80 57.5 80S89 63.868 89 40.745C89 31.54 81.462 23 72.164 23z" fill="#FF5A7C"/>
            <path d="M30.387 40.745c0-8.517 6.52-16.449 14.93-17.59A17.337 17.337 0 0 0 43 23c-9.388 0-17 8.54-17 17.745C26 63.868 57.806 80 57.806 80s.823-.419 2.194-1.209c-7.186-4.144-29.613-18.627-29.613-38.046z" fill="#DF3759"/>
        </g>
        <path d="m37.115 60.365 1.853 3.388a.706.706 0 0 0 .28.28l3.387 1.852a.7.7 0 0 1 0 1.23l-3.388 1.853a.706.706 0 0 0-.279.28l-1.853 3.387a.7.7 0 0 1-1.23 0l-1.853-3.388a.706.706 0 0 0-.279-.279l-3.388-1.853a.7.7 0 0 1 0-1.23l3.388-1.853a.7.7 0 0 0 .28-.279l1.852-3.388a.7.7 0 0 1 1.23 0z" fill="#FFF"/>
        <path d="M102.858 18a.927.927 0 0 0-.928.928v.624a.928.928 0 0 0 1.855 0v-.624a.927.927 0 0 0-.927-.928zm0 9.224a.927.927 0 0 0-.928.927v.625a.927.927 0 0 0 1.855 0v-.625a.927.927 0 0 0-.927-.927zm3.044-5.484a.924.924 0 0 0 .655-.272l.443-.442a.926.926 0 1 0-1.311-1.312l-.442.441a.926.926 0 0 0 .656 1.584l-.001.001zm-6.744 4.496-.442.441a.927.927 0 0 0 1.311 1.313l.442-.442a.926.926 0 1 0-1.31-1.312h-.001zm8.629-3.312h-.625a.927.927 0 0 0 0 1.855h.625a.927.927 0 1 0 0-1.855zm-8.307.928a.927.927 0 0 0-.927-.928h-.625a.927.927 0 1 0 0 1.855h.625a.928.928 0 0 0 .928-.927h-.001zm7.077 2.384a.928.928 0 0 0-1.311 1.312l.442.442A.927.927 0 0 0 107 26.677l-.443-.441zm-6.53-6.522a.928.928 0 0 0-1.311 1.312l.442.442a.928.928 0 0 0 1.312-1.313l-.443-.441z" fill="#FFB657" fill-rule="nonzero"/>
        <path d="m87.304.477 2.424 4.43c.084.155.21.281.364.365l4.431 2.424a.916.916 0 0 1 0 1.608l-4.43 2.424a.907.907 0 0 0-.365.364l-2.424 4.431a.916.916 0 0 1-1.608 0l-2.424-4.43a.907.907 0 0 0-.364-.365l-4.431-2.424a.916.916 0 0 1 0-1.608l4.43-2.424a.907.907 0 0 0 .365-.364L85.696.477a.916.916 0 0 1 1.608 0z" fill="#FFF"/>
        <g transform="translate(77 48)">
            <ellipse stroke="#00F6D2" stroke-width="2" fill="url(#a)" fill-rule="nonzero" cx="12.593" cy="12.477" rx="12.58" ry="12.465"/>
            <path fill="#FFF" fill-rule="nonzero" d="m12.628 5.28 7.236 12.42h-7.238v-2.074h3.693l-3.691-6.441zM12.625 5.28 5.388 17.7h7.238v-2.074H8.933l3.692-6.441z"/>
            <path fill="#FFF" fill-rule="nonzero" d="M12.626 10.783v4.086l-2.29.005zM12.626 10.783v4.086l2.289.005z"/>
            <path stroke="#FFF" stroke-width=".8" d="M12.625 6.803 18.57 16.94H6.696l5.93-10.137z"/>
            <path fill="#FFF" fill-rule="nonzero" d="m12.632 10.778-2.266 4.09 4.571.018z"/>
            <path fill="#FFF" fill-rule="nonzero" d="m12.776 13.266-7.72-3.325v3.822l7.72-.155zM12.776 13.266l7.721-3.325v3.822l-7.721-.155z"/>
        </g>
        <g transform="translate(1.01 28.009)">
            <ellipse stroke="#00F6D2" stroke-width="2" fill="url(#b)" fill-rule="nonzero" cx="10.111" cy="10.02" rx="10.111" ry="10.02"/>
            <path fill="#FFF" fill-rule="nonzero" d="m10.136 4.358 5.694 9.771h-5.695v-1.631h2.906L10.136 7.43z"/>
            <path fill="#FFF" fill-rule="nonzero" d="m10.134 4.358-5.693 9.771h5.694v-1.631H7.229l2.906-5.068V4.358z"/>
            <path fill="#FFF" fill-rule="nonzero" d="M10.135 8.688v3.214l-1.801.004zM10.135 8.688v3.214l1.802.004z"/>
            <path stroke="#FFF" stroke-width="1.5" d="m10.135 5.873 4.398 7.499H5.749z"/>
            <path fill="#FFF" fill-rule="nonzero" d="m10.14 8.684-1.783 3.217 3.597.015z"/>
            <path fill="#FFF" fill-rule="nonzero" d="M10.255 10.641 4.181 8.025v3.007l6.074-.122zM10.255 10.641l6.074-2.616v3.007l-6.074-.122z"/>
        </g>
    </g>
</svg>
