<svg xmlns="http://www.w3.org/2000/svg" xmlns:xlink="http://www.w3.org/1999/xlink" viewBox="0 0 372.62 260.19"><defs><style>.cls-1{fill:#0b76ff;}.cls-2{fill:#24c1ff;}.cls-3{fill:#39fff2;}.cls-4{fill:#00e2c2;}.cls-5{fill:url(#Безымянный_градиент_11);}.cls-6{fill:url(#Безымянный_градиент_39);}.cls-7{fill:url(#Безымянный_градиент_370);}.cls-8{fill:url(#Безымянный_градиент_12);}</style><linearGradient id="Безымянный_градиент_11" x1="-109.56" y1="541.61" x2="-108.52" y2="541.61" gradientTransform="matrix(98, 0, 0, -47, 10736.87, 25584.67)" gradientUnits="userSpaceOnUse"><stop offset="0" stop-color="#fff" stop-opacity="0"/><stop offset="1" stop-color="#fff"/></linearGradient><linearGradient id="Безымянный_градиент_39" x1="-113.61" y1="543.33" x2="-112.4" y2="543.33" gradientTransform="translate(-10762.25 32713.4) rotate(180) scale(98 60)" gradientUnits="userSpaceOnUse"><stop offset="0" stop-color="#fd76fd" stop-opacity="0"/><stop offset="1" stop-color="#ff51ff"/></linearGradient><linearGradient id="Безымянный_градиент_370" x1="-113.63" y1="563.11" x2="-112.65" y2="563.11" gradientTransform="matrix(-98, 0, 0, 26, -10762.25, -14488.76)" gradientUnits="userSpaceOnUse"><stop offset="0" stop-color="#9d6eff" stop-opacity="0"/><stop offset="1" stop-color="#a18cff"/></linearGradient><linearGradient id="Безымянный_градиент_12" x1="-113.62" y1="540.85" x2="-112.5" y2="540.85" gradientTransform="translate(-10762.25 23389.29) rotate(180) scale(98 43)" gradientUnits="userSpaceOnUse"><stop offset="0" stop-color="#ae60d6" stop-opacity="0"/><stop offset="1" stop-color="#ab38e6"/></linearGradient></defs><title>Beam logo triangle</title><g id="Слой_2" data-name="Слой 2"><g id="logo_triangle" data-name="logo triangle"><g id="logo"><g id="logo-2" data-name="logo"><path id="Combined-Shape" class="cls-1" d="M186.13,216.75h77.52l-77.5-135V0L338.06,260.19H186.12Z"/><path id="Combined-Shape-2" data-name="Combined-Shape" class="cls-2" d="M186.12,216.75H108.59l77.5-135V0L34.19,260.19H186.12Z"/><polygon id="Triangle-5" class="cls-3" points="186.12 115.85 186.12 203.12 138.64 203.21 186.12 115.85"/><polygon id="Triangle-5-2" data-name="Triangle-5" class="cls-4" points="186.12 115.85 186.12 203.12 233.6 203.21 186.12 115.85"/><polygon id="Rectangle-5" class="cls-5" points="0 81.36 186.12 167.38 186.12 176.38 0 135.65 0 81.36"/><polygon id="Rectangle-5-2" data-name="Rectangle-5" class="cls-6" points="372.62 56.38 186.12 167.38 186.12 170.38 372.62 92.22 372.62 56.38"/><polygon id="Rectangle-5-3" data-name="Rectangle-5" class="cls-7" points="372.62 163.88 186.12 176.38 186.12 173.38 372.62 128.05 372.62 163.88"/><polygon id="Rectangle-5-4" data-name="Rectangle-5" class="cls-8" points="372.62 92.22 186.12 170.38 186.12 173.38 372.62 128.05 372.62 92.22"/></g></g></g></g></svg>