<svg width="405" height="111" viewBox="0 0 405 111" xmlns="http://www.w3.org/2000/svg">
    <defs>
        <radialGradient cx="50%" cy="50%" fx="50%" fy="50%" r="50%" gradientTransform="matrix(0 1 -.99088 0 .995 0)" id="a">
            <stop stop-color="#008471" offset="0%"/>
            <stop stop-color="#103051" offset="100%"/>
        </radialGradient>
        <radialGradient cx="50%" cy="50%" fx="50%" fy="50%" r="50%" gradientTransform="matrix(0 1 -.99086 0 .995 0)" id="b">
            <stop stop-color="#008471" offset="0%"/>
            <stop stop-color="#103051" offset="100%"/>
        </radialGradient>
        <radialGradient cx="50%" cy="50%" fx="50%" fy="50%" r="50%" gradientTransform="matrix(0 1 -.991 0 .995 0)" id="c">
            <stop stop-color="#008471" offset="0%"/>
            <stop stop-color="#103051" offset="100%"/>
        </radialGradient>
    </defs>
    <g fill="none" fill-rule="evenodd">
        <path d="M398.858 28a.927.927 0 0 0-.928.928v.624a.928.928 0 0 0 1.855 0v-.624a.927.927 0 0 0-.927-.928zm0 9.224a.927.927 0 0 0-.928.927v.625a.927.927 0 0 0 1.855 0v-.625a.927.927 0 0 0-.927-.927zm3.044-5.484a.924.924 0 0 0 .655-.272l.443-.442a.926.926 0 1 0-1.311-1.312l-.442.441a.926.926 0 0 0 .656 1.584l-.001.001zm-6.744 4.496-.442.441a.927.927 0 0 0 1.311 1.313l.442-.442a.926.926 0 1 0-1.31-1.312h-.001zm8.629-3.312h-.625a.927.927 0 0 0 0 1.855h.625a.927.927 0 1 0 0-1.855zm-8.307.928a.927.927 0 0 0-.927-.928h-.625a.927.927 0 1 0 0 1.855h.625a.928.928 0 0 0 .928-.927h-.001zm7.077 2.384a.928.928 0 0 0-1.311 1.312l.442.442A.927.927 0 0 0 403 36.677l-.443-.441zm-6.53-6.522a.928.928 0 0 0-1.311 1.312l.442.442a.928.928 0 0 0 1.312-1.313l-.443-.441zM31.298 4c-.726 0-1.314.588-1.314 1.314V6.2a1.314 1.314 0 0 0 2.628 0v-.885c0-.727-.588-1.315-1.314-1.315zm0 13.067c-.726 0-1.314.588-1.314 1.314v.884a1.314 1.314 0 1 0 2.628 0v-.884c0-.726-.588-1.314-1.314-1.314zm4.312-7.77c.337 0 .673-.128.93-.385l.625-.625a1.313 1.313 0 1 0-1.857-1.86l-.626.626a1.313 1.313 0 0 0 .929 2.244h-.001zm-9.553 6.37-.626.625a1.315 1.315 0 0 0 1.858 1.86l.626-.625a1.314 1.314 0 0 0-1.858-1.859v-.001zm12.225-4.691h-.886a1.314 1.314 0 0 0 0 2.628h.886a1.314 1.314 0 1 0 0-2.628zM26.514 12.29c0-.726-.588-1.314-1.314-1.314h-.886a1.314 1.314 0 1 0 0 2.628h.886c.726 0 1.314-.588 1.314-1.314zm10.026 3.377a1.315 1.315 0 1 0-1.858 1.86l.626.625c.256.256.593.384.929.384a1.315 1.315 0 0 0 .928-2.244l-.626-.625h.001zM26.057 8.912a1.31 1.31 0 0 0 1.859-.001 1.314 1.314 0 0 0-.001-1.858l-.626-.626a1.315 1.315 0 0 0-1.858 1.86l.626.625z" fill="#FFB657" fill-rule="nonzero"/>
        <path d="m373.304 17.477 2.424 4.43c.084.155.21.281.364.365l4.431 2.424a.916.916 0 0 1 0 1.608l-4.43 2.424a.907.907 0 0 0-.365.364l-2.424 4.431a.916.916 0 0 1-1.608 0l-2.424-4.43a.907.907 0 0 0-.364-.365l-4.431-2.424a.916.916 0 0 1 0-1.608l4.43-2.424a.907.907 0 0 0 .365-.364l2.424-4.431a.916.916 0 0 1 1.608 0zM232.378 90.224l1.14 2.085c.04.073.1.132.172.172l2.085 1.14c.3.164.3.594 0 .757l-2.085 1.14a.43.43 0 0 0-.171.172l-1.14 2.085c-.164.3-.594.3-.758 0l-1.14-2.085a.428.428 0 0 0-.172-.171l-2.085-1.14a.431.431 0 0 1 0-.758l2.085-1.14a.43.43 0 0 0 .172-.171l1.14-2.086c.164-.3.594-.3.757 0zM44.115 97.365l1.853 3.388a.706.706 0 0 0 .279.279l3.388 1.853a.7.7 0 0 1 0 1.23l-3.388 1.853a.706.706 0 0 0-.279.279l-1.853 3.388a.7.7 0 0 1-1.23 0l-1.853-3.388a.706.706 0 0 0-.279-.279l-3.388-1.853a.7.7 0 0 1 0-1.23l3.388-1.853a.7.7 0 0 0 .279-.279l1.853-3.388a.7.7 0 0 1 1.23 0z" fill="#FFF" fill-rule="nonzero"/>
        <g transform="translate(1.011 81.011)">
            <ellipse stroke="#00F6D2" stroke-width="2" fill="url(#a)" fill-rule="nonzero" cx="11.07" cy="10.969" rx="11.07" ry="10.969"/>
            <path fill="#FFF" fill-rule="nonzero" d="m11.099 4.71 6.292 10.8h-6.293v-1.803h3.211l-3.21-5.602zM11.097 4.71l-6.293 10.8h6.294v-1.803H7.886l3.21-5.602V4.71z"/>
            <path fill="#FFF" fill-rule="nonzero" d="M11.098 9.496v3.553l-1.991.004z"/>
            <path fill="#FFF" fill-rule="nonzero" d="M11.097 9.496v3.553l1.991.004z"/>
            <path stroke="#FFF" stroke-width="1.5" d="m11.097 6.228 4.999 8.523H6.112z"/>
            <path fill="#FFF" fill-rule="nonzero" d="m11.103 9.491-1.97 3.556 3.975.016z"/>
            <path fill="#FFF" fill-rule="nonzero" d="M11.229 11.654 4.516 8.763v3.323l6.713-.135z"/>
            <path fill="#FFF" fill-rule="nonzero" d="m11.229 11.654 6.714-2.891v3.323l-6.714-.135z"/>
        </g>
        <g transform="translate(140.013 1.012)">
            <ellipse stroke="#00F6D2" stroke-width="2" fill="url(#b)" fill-rule="nonzero" cx="12.58" cy="12.465" rx="12.58" ry="12.465"/>
            <path fill="#FFF" fill-rule="nonzero" d="m12.615 5.268 7.236 12.42h-7.238v-2.074h3.693l-3.691-6.441zM12.612 5.268l-7.237 12.42h7.238v-2.074H8.92l3.692-6.441z"/>
            <path fill="#FFF" fill-rule="nonzero" d="M12.613 10.771v4.086l-2.29.005zM12.613 10.771v4.086l2.289.005z"/>
            <path stroke="#FFF" stroke-width="1.5" d="m12.612 6.791 5.945 10.137H6.683l5.93-10.137z"/>
            <path fill="#FFF" fill-rule="nonzero" d="m12.619 10.766-2.266 4.09 4.571.018z"/>
            <path fill="#FFF" fill-rule="nonzero" d="m12.763 13.254-7.72-3.325v3.822l7.72-.155zM12.763 13.254l7.721-3.325v3.822l-7.721-.155z"/>
        </g>
        <g transform="translate(372.01 75.009)">
            <ellipse stroke="#00F6D2" stroke-width="2" fill="url(#c)" fill-rule="nonzero" cx="10.111" cy="10.02" rx="10.111" ry="10.02"/>
            <path fill="#FFF" fill-rule="nonzero" d="m10.136 4.358 5.694 9.771h-5.695v-1.631h2.906L10.136 7.43z"/>
            <path fill="#FFF" fill-rule="nonzero" d="m10.134 4.358-5.693 9.771h5.694v-1.631H7.229l2.906-5.068V4.358z"/>
            <path fill="#FFF" fill-rule="nonzero" d="M10.135 8.688v3.214l-1.801.004zM10.135 8.688v3.214l1.802.004z"/>
            <path stroke="#FFF" stroke-width="1.5" d="m10.135 5.873 4.398 7.499H5.749z"/>
            <path fill="#FFF" fill-rule="nonzero" d="m10.14 8.684-1.783 3.217 3.597.015z"/>
            <path fill="#FFF" fill-rule="nonzero" d="M10.255 10.641 4.181 8.025v3.007l6.074-.122zM10.255 10.641l6.074-2.616v3.007l-6.074-.122z"/>
        </g>
    </g>
</svg>
