<svg width="10" height="10" viewBox="0 0 10 10" fill="none" xmlns="http://www.w3.org/2000/svg">
<path fill-rule="evenodd" clip-rule="evenodd" d="M0 5C0 2.24296 2.24296 0 5 0C7.75706 0 10 2.24296 10 5C10 7.75704 7.75706 10 5 10C2.24296 10 0 7.75706 0 5ZM1.0929 5C1.0929 7.15443 2.84557 8.9071 5 8.9071C7.15443 8.9071 8.9071 7.15443 8.9071 5C8.9071 2.84567 7.15443 1.0929 5 1.0929C2.84557 1.0929 1.0929 2.84567 1.0929 5Z" fill="white"/>
<path d="M5.44102 5.05705V2.95393C5.44102 2.7191 5.25226 2.52881 5.01941 2.52881C4.78649 2.52881 4.59772 2.7191 4.59772 2.95393V5.19286C4.59772 5.19955 4.59935 5.20582 4.59967 5.2125C4.59413 5.3281 4.63363 5.44547 4.7212 5.53377L6.2917 7.11691C6.45643 7.28297 6.72341 7.28297 6.88801 7.11691C7.05262 6.95084 7.05273 6.68169 6.88801 6.51574L5.44102 5.05705Z" fill="white"/>
</svg>
