<svg width="14" height="14" viewBox="0 0 14 14" fill="none" xmlns="http://www.w3.org/2000/svg">
<path d="M10.5964 7.22589C10.3274 7.22589 10.1094 7.44389 10.1094 7.71285V11.4066C10.1094 11.817 9.77551 12.1509 9.36509 12.1509H2.59322C2.18282 12.1509 1.84893 11.817 1.84893 11.4066V4.63472C1.84893 4.22433 2.18282 3.89043 2.59322 3.89043H6.28697C6.55591 3.89043 6.77394 3.6724 6.77394 3.40347C6.77394 3.13453 6.55591 2.9165 6.28697 2.9165H2.59322C1.6458 2.9165 0.875 3.68731 0.875 4.63472V11.4066C0.875 12.3541 1.6458 13.1248 2.59322 13.1248H9.36507C10.3125 13.1248 11.0833 12.3541 11.0833 11.4066V7.71285C11.0833 7.44389 10.8653 7.22589 10.5964 7.22589Z" fill="#05E2C2" stroke="#05E2C2" stroke-width="0.5"/>
<path d="M12.6134 0.875H8.73581C8.45347 0.875 8.22461 1.10388 8.22461 1.3862C8.22461 1.66852 8.45347 1.8974 8.73581 1.8974H12.1022V5.2638C12.1022 5.54612 12.3311 5.775 12.6134 5.775C12.8958 5.775 13.1246 5.54612 13.1246 5.2638V1.3862C13.1246 1.10388 12.8958 0.875 12.6134 0.875Z" fill="#05E2C2" stroke="#05E2C2" stroke-width="0.5"/>
<path d="M12.9817 1.01784C12.7912 0.827385 12.4824 0.827385 12.2919 1.01784L5.50907 7.80067C5.31859 7.99116 5.31859 8.29998 5.50907 8.49047C5.6043 8.58572 5.72915 8.63333 5.85398 8.63333C5.97883 8.63333 6.10366 8.5857 6.19888 8.49047L12.9817 1.70764C13.1722 1.51715 13.1722 1.20833 12.9817 1.01784Z" fill="#05E2C2" stroke="#05E2C2" stroke-width="0.5"/>
</svg>
