<svg width="26" height="27" viewBox="0 0 26 27" xmlns="http://www.w3.org/2000/svg">
    <g fill="#FFF" fill-rule="evenodd" opacity=".3">
        <path d="M13 17C8.417 17 4.107 18.771.867 21.988a2.92 2.92 0 0 0 0 4.152c.577.573 1.334.86 2.092.86a2.96 2.96 0 0 0 2.091-.86A11.212 11.212 0 0 1 13 22.872c3.003 0 5.826 1.16 7.95 3.268a2.975 2.975 0 0 0 4.183 0 2.92 2.92 0 0 0 0-4.152C21.893 18.77 17.583 17 13 17z" fill-rule="nonzero"/>
        <path d="m3.414.586 1.468 1.467L6.35.586a2 2 0 1 1 2.828 2.828L7.711 4.882l1.36 1.36a2 2 0 1 1-2.828 2.83L4.882 7.71l-1.36 1.36a2 2 0 1 1-2.83-2.828l1.361-1.361L.586 3.414A2 2 0 1 1 3.414.586zM19.414.586l1.468 1.467L22.35.586a2 2 0 0 1 2.828 2.828l-1.467 1.468 1.36 1.36a2 2 0 1 1-2.828 2.83L20.882 7.71l-1.36 1.36a2 2 0 1 1-2.83-2.828l1.361-1.361-1.467-1.468A2 2 0 0 1 19.414.586z"/>
    </g>
</svg>
