<svg width="20" height="20" viewBox="0 0 20 20" fill="none" xmlns="http://www.w3.org/2000/svg">
<path d="M9.99991 18.6153C14.7581 18.6153 18.6153 14.7581 18.6153 9.99991C18.6153 5.24176 14.7581 1.38452 9.99991 1.38452C5.24176 1.38452 1.38452 5.24176 1.38452 9.99991C1.38452 14.7581 5.24176 18.6153 9.99991 18.6153Z" fill="#000A16" stroke="url(#paint0_linear_2_632)" stroke-width="2"/>
<path d="M10.0065 4.67944L14.8144 12.6656H5.19678L10.0065 4.67944ZM10.0061 7.31752L7.56899 11.3524H12.4422L10.0061 7.31752Z" fill="#0B76FF"/>
<g style="mix-blend-mode:lighten">
<path d="M10.0047 15.3154L5.19686 7.3293L14.8145 7.3293L10.0047 15.3154ZM10.0052 12.6773L12.4422 8.64251H7.56907L10.0052 12.6773Z" fill="#00E3C2"/>
</g>
<path d="M7.40864 5.46696L15.4984 9.7603L7.03534 14.715L7.40864 5.46696ZM8.68301 7.70363L8.48821 12.3797L12.7764 9.86913L8.68301 7.70363Z" fill="#25C0FF"/>
<g style="mix-blend-mode:lighten">
<path d="M12.5909 14.5328L4.5011 10.2395L12.9642 5.28471L12.5909 14.5328ZM11.3165 12.2961L11.5113 7.62008L7.22311 10.1306L11.3165 12.2961Z" fill="#FF51FF"/>
</g>
<defs>
<linearGradient id="paint0_linear_2_632" x1="9.99991" y1="1.38452" x2="9.99991" y2="18.6153" gradientUnits="userSpaceOnUse">
<stop stop-color="#A17DFF"/>
<stop offset="1" stop-color="#6F7FFF"/>
</linearGradient>
</defs>
</svg>
