<svg width="70" height="70" viewBox="0 0 70 70" xmlns="http://www.w3.org/2000/svg">
    <defs>
        <radialGradient cx="50%" cy="50%" fx="50%" fy="50%" r="50%" id="a">
            <stop stop-color="#F7931A" offset="0%"/>
            <stop stop-color="#103051" offset="100%"/>
        </radialGradient>
    </defs>
    <g fill="none" fill-rule="evenodd">
        <circle stroke="#F7931A" stroke-width="6" fill="url(#a)" cx="35" cy="35" r="32"/>
        <path d="M49.384 31.208c.616-4.116-2.52-6.328-6.808-7.804l1.39-5.575-3.396-.846-1.354 5.428c-.893-.222-1.81-.432-2.721-.64l1.364-5.464-3.395-.845-1.392 5.573a112.35 112.35 0 0 1-2.169-.51l.004-.017-4.684-1.169-.903 3.625s2.52.577 2.467.613c1.375.343 1.624 1.252 1.582 1.974l-1.584 6.35c.095.025.217.06.353.114-.113-.028-.234-.059-.36-.089l-2.22 8.898c-.168.417-.595 1.044-1.557.806.034.05-2.468-.616-2.468-.616L19.846 44.9 24.266 46c.823.206 1.628.422 2.422.624l-1.406 5.64 3.393.845 1.392-5.58c.927.252 1.826.484 2.707.703l-1.387 5.553 3.397.845 1.405-5.628c5.792 1.095 10.147.653 11.98-4.58 1.477-4.215-.073-6.646-3.12-8.231 2.219-.512 3.89-1.97 4.336-4.983zm-7.76 10.873c-1.05 4.214-8.152 1.936-10.454 1.365l1.865-7.471c2.302.574 9.686 1.71 8.589 6.106zm1.05-10.934c-.957 3.833-6.868 1.885-8.786 1.408l1.691-6.776c1.918.478 8.093 1.37 7.095 5.368z" fill="#FFF" fill-rule="nonzero"/>
    </g>
</svg>
