<svg width="16" height="16" viewBox="0 0 16 16" fill="none" xmlns="http://www.w3.org/2000/svg">
<path fill-rule="evenodd" clip-rule="evenodd" d="M11.3359 10.2863L14.7871 13.7518C15.0791 14.045 15.0694 14.5124 14.766 14.7943C14.6232 14.927 14.4351 15 14.2368 15C14.0273 15 13.8318 14.9196 13.6864 14.7739L10.209 11.2821C9.22158 11.9521 8.06667 12.305 6.85474 12.305C3.62649 12.305 1 9.76923 1 6.65249C1 3.53576 3.62649 1 6.85474 1C10.083 1 12.7095 3.53576 12.7095 6.65249C12.7095 7.98648 12.2233 9.26788 11.3359 10.2863ZM11.1821 6.65249C11.1821 4.34873 9.24092 2.47456 6.85474 2.47456C4.46855 2.47456 2.52732 4.34873 2.52732 6.65249C2.52732 8.95625 4.46855 10.8304 6.85474 10.8304C9.24092 10.8304 11.1821 8.95625 11.1821 6.65249Z" fill="white"/>
</svg>
