<svg width="16" height="16" viewBox="0 0 16 16" fill="none" xmlns="http://www.w3.org/2000/svg">
<path d="M2.02083 13.9795H3.47917C4.04208 13.9795 4.5 13.5216 4.5 12.9587V6.25033C4.5 5.68741 4.04208 5.22949 3.47917 5.22949H2.02083C1.45792 5.22949 1 5.68741 1 6.25033V12.9587C1 13.5216 1.45792 13.9795 2.02083 13.9795Z" fill="#00F6D2"/>
<path d="M8.45558 1C7.87225 1 7.58058 1.29167 7.58058 2.75C7.58058 4.136 6.23833 5.25133 5.375 5.82592V13.0523C6.30892 13.4845 8.1785 14.125 11.0806 14.125H12.0139C13.1514 14.125 14.1198 13.3083 14.3123 12.1883L14.9656 8.39667C15.2106 6.9675 14.1139 5.66667 12.6673 5.66667H9.91392C9.91392 5.66667 10.3514 4.79167 10.3514 3.33333C10.3514 1.58333 9.03892 1 8.45558 1Z" fill="#00F6D2"/>
</svg>
