<svg width="16" height="16" viewBox="0 0 16 16" fill="none" xmlns="http://www.w3.org/2000/svg">
<path d="M2.02083 2.02051H3.47917C4.04208 2.02051 4.5 2.47842 4.5 3.04134V9.74967C4.5 10.3126 4.04208 10.7705 3.47917 10.7705H2.02083C1.45792 10.7705 1 10.3126 1 9.74967V3.04134C1 2.47842 1.45792 2.02051 2.02083 2.02051Z" fill="#DE3155"/>
<path d="M8.45558 15C7.87225 15 7.58058 14.7083 7.58058 13.25C7.58058 11.864 6.23833 10.7487 5.375 10.1741V2.94775C6.30892 2.5155 8.1785 1.875 11.0806 1.875H12.0139C13.1514 1.875 14.1198 2.69167 14.3123 3.81167L14.9656 7.60333C15.2106 9.0325 14.1139 10.3333 12.6673 10.3333H9.91392C9.91392 10.3333 10.3514 11.2083 10.3514 12.6667C10.3514 14.4167 9.03892 15 8.45558 15Z" fill="#DE3155"/>
</svg>
