<svg width="8" height="13" viewBox="0 0 8 13" fill="none" xmlns="http://www.w3.org/2000/svg">
<path d="M3.54332 0.188843L3.54271 0.189422L0.187869 3.56052C-0.0634535 3.81307 -0.0625182 4.22155 0.190063 4.47294C0.442611 4.7243 0.851095 4.72333 1.10245 4.47078L3.35484 2.20742L3.35484 11.7416C3.35484 12.0979 3.64368 12.3867 4 12.3867C4.35632 12.3867 4.64516 12.0979 4.64516 11.7416L4.64516 2.20745L6.89755 4.47075C7.14891 4.7233 7.55739 4.72426 7.80994 4.47291C8.06255 4.22152 8.06342 3.813 7.81213 3.56049L4.45729 0.18939L4.45668 0.188809C4.20448 -0.0638685 3.79468 -0.0630608 3.54332 0.188843Z" fill="#00F6D2"/>
</svg>
