<svg width="17" height="16" viewBox="0 0 17 16" fill="none" xmlns="http://www.w3.org/2000/svg">
<path d="M2.45811 13.9795H3.94402C4.51759 13.9795 4.98416 13.5216 4.98416 12.9587V6.25033C4.98416 5.68741 4.51759 5.22949 3.94402 5.22949H2.45811C1.88455 5.22949 1.41797 5.68741 1.41797 6.25033V12.9587C1.41797 13.5216 1.88455 13.9795 2.45811 13.9795Z" fill="#032E49"/>
<path d="M9.01482 1C8.42046 1 8.12327 1.29167 8.12327 2.75C8.12327 4.136 6.75564 5.25133 5.87598 5.82592V13.0522C6.82756 13.4845 8.7325 14.125 11.6895 14.125H12.6405C13.7995 14.125 14.7861 13.3083 14.9823 12.1883L15.6479 8.39667C15.8976 6.9675 14.7802 5.66667 13.3061 5.66667H10.5007C10.5007 5.66667 10.9465 4.79167 10.9465 3.33333C10.9465 1.58333 9.60919 1 9.01482 1Z" fill="#032E49"/>
</svg>
