<svg width="26" height="26" viewBox="0 0 26 26" xmlns="http://www.w3.org/2000/svg">
    <defs>
        <radialGradient cx="50%" cy="50%" fx="50%" fy="50%" r="50%" id="a">
            <stop stop-color="#50AF95" offset="0%"/>
            <stop stop-color="#103051" offset="100%"/>
        </radialGradient>
    </defs>
    <g fill="none" fill-rule="evenodd">
        <circle stroke="#50AF95" stroke-width="2" fill="url(#a)" cx="13" cy="13" r="11.636"/>
        <path d="M14.335 14.036c-.07.005-.427.026-1.225.026-.635 0-1.086-.019-1.244-.026-2.454-.108-4.285-.535-4.285-1.047 0-.511 1.831-.938 4.285-1.047v1.668c.16.012.62.04 1.255.04.762 0 1.143-.033 1.212-.039v-1.668c2.448.109 4.276.536 4.276 1.046s-1.827.938-4.276 1.046h.002zm0-2.266v-1.493h3.417V8H8.45v2.277h3.416v1.493C9.088 11.897 7 12.447 7 13.107c0 .659 2.088 1.208 4.865 1.336v4.785h2.47v-4.786c2.77-.128 4.855-.677 4.855-1.336s-2.083-1.208-4.855-1.336z" fill="#FFF"/>
    </g>
</svg>
