<svg width="8" height="13" viewBox="0 0 8 13" fill="none" xmlns="http://www.w3.org/2000/svg">
<path d="M4.45668 12.1979L4.45729 12.1973L7.81213 8.8262C8.06345 8.57365 8.06252 8.16516 7.80994 7.91378C7.55739 7.66242 7.1489 7.66339 6.89755 7.91594L4.64516 10.1793L4.64516 0.645162C4.64516 0.288839 4.35632 -1.11503e-07 4 -1.22408e-07C3.64368 -1.33312e-07 3.35484 0.288839 3.35484 0.645161L3.35484 10.1793L1.10245 7.91597C0.851094 7.66342 0.44261 7.66246 0.190062 7.91381C-0.062552 8.1652 -0.0634227 8.57371 0.187868 8.82623L3.54271 12.1973L3.54332 12.1979C3.79552 12.4506 4.20532 12.4498 4.45668 12.1979Z" fill="#DE3155"/>
</svg>
