<svg width="15" height="12" viewBox="0 0 15 12" fill="none" xmlns="http://www.w3.org/2000/svg">
<path d="M6.08974 6.46143C5.79365 6.9649 5.4801 7.45401 5.10601 7.89394C4.22466 8.93025 3.07449 9.20543 1.83355 9.13495C0.719417 9.07156 0.724885 11.0033 1.83355 11.0663C4.16501 11.1987 5.81299 10.0727 7.125 8.15592C6.90894 7.84112 6.70929 7.52404 6.52659 7.21846C6.37623 6.96737 6.23076 6.71069 6.08974 6.46143Z" fill="white"/>
<path d="M8.67384 4.96488C8.79915 5.1595 8.92293 5.35087 9.04778 5.53846C9.27664 5.22635 9.52076 4.92505 9.79547 4.64489C10.4889 3.93782 11.279 3.64729 12.1465 3.56508C12.0914 3.63058 12.038 3.69727 11.9825 3.76244C11.6656 4.13446 11.6121 4.65914 11.9825 5.02514C12.3084 5.34712 12.9433 5.39794 13.2608 5.02514C13.7498 4.45126 14.217 3.85919 14.706 3.28531C15.0245 2.96914 15.1464 2.44331 14.7522 2.02152L13.1253 0.280392C12.3331 -0.567314 11.0579 0.698458 11.847 1.5431L12.0582 1.7691C11.1708 1.83183 10.3164 2.05482 9.52737 2.56138C8.9379 2.93992 8.44222 3.4264 8 3.9594C8.08882 4.08243 8.17752 4.20743 8.26482 4.33794C8.4044 4.5466 8.5413 4.75932 8.67384 4.96488Z" fill="white"/>
<path d="M12.9609 6.77483C12.8079 6.5882 12.5814 6.50363 12.3512 6.50363C12.1037 6.50363 11.8518 6.60154 11.6832 6.77483C11.313 7.15555 11.3664 7.70099 11.6832 8.08773C11.7386 8.15552 11.7921 8.22502 11.847 8.29309C10.98 8.20774 10.1901 7.90541 9.4971 7.1703C9.1028 6.75211 8.77015 6.28968 8.45781 5.81152C8.15512 5.34821 7.87183 4.86996 7.5713 4.40221C7.51384 4.31286 7.45484 4.22707 7.39616 4.1406C6.04816 2.15362 4.36233 0.922852 1.95465 0.922852C1.82879 0.922852 1.70075 0.926258 1.57084 0.932915C0.430237 0.992481 0.406301 2.79101 1.51539 2.79101C1.53364 2.79101 1.55201 2.79044 1.57084 2.78951C1.69609 2.78301 1.82013 2.7796 1.94337 2.7796C3.09787 2.7796 4.16031 3.08253 4.99311 3.98284C5.50512 4.53647 5.90916 5.1706 6.30483 5.81152C6.49249 6.11545 6.67845 6.42059 6.8732 6.71989C7.04061 6.97729 7.21422 7.23296 7.39571 7.48229C7.91313 8.19262 8.50003 8.84978 9.22887 9.33666C10.0175 9.86338 10.8716 10.0952 11.7586 10.1603L11.5475 10.3953C10.9425 11.0689 11.551 11.9998 12.2249 11.9998C12.4297 11.9998 12.6406 11.9136 12.8252 11.7083L14.4515 9.89798C14.8455 9.45936 14.7237 8.91263 14.4053 8.58395C13.9167 7.98695 13.4498 7.37169 12.9609 6.77483Z" fill="white"/>
</svg>
