<svg width="26" height="26" viewBox="0 0 26 26" xmlns="http://www.w3.org/2000/svg">
    <defs>
        <radialGradient cx="50%" cy="50%" fx="50%" fy="50%" r="50%" id="a">
            <stop stop-color="#F5AC37" offset="0%"/>
            <stop stop-color="#103051" offset="100%"/>
        </radialGradient>
    </defs>
    <g fill="none" fill-rule="evenodd">
        <circle stroke="#F5AC37" stroke-width="2" fill="url(#a)" cx="13" cy="13" r="11.636"/>
        <path d="M13.42 13.612h3.645c.078 0 .115 0 .12-.102.03-.37.03-.744 0-1.115 0-.072-.036-.102-.114-.102H9.817c-.09 0-.114.03-.114.114v1.067c0 .138 0 .138.144.138h3.573zm3.358-2.566a.117.117 0 0 0 0-.083 2.37 2.37 0 0 0-.217-.378 3.058 3.058 0 0 0-.443-.558 1.47 1.47 0 0 0-.276-.27 4.31 4.31 0 0 0-1.799-.91 4.471 4.471 0 0 0-1.019-.109h-3.22c-.089 0-.101.036-.101.114v2.128c0 .09 0 .114.114.114h6.918s.06-.012.072-.048h-.03.001zm0 3.813a1.399 1.399 0 0 0-.306 0H9.823c-.09 0-.12 0-.12.12v2.08c0 .096 0 .12.12.12h3.07c.147.012.293.001.437-.03a4.57 4.57 0 0 0 1.302-.287c.151-.053.298-.121.437-.204h.042a3.895 3.895 0 0 0 1.672-1.684s.042-.09-.005-.114v-.001zm-8.28 3.4v-3.316c0-.078 0-.09-.095-.09H7.102c-.072 0-.102 0-.102-.095v-1.14h1.39c.078 0 .109 0 .109-.101V12.39c0-.073 0-.09-.096-.09H7.102c-.072 0-.102 0-.102-.096v-1.055c0-.066 0-.084.096-.084h1.289c.09 0 .114 0 .114-.114V7.72c0-.096 0-.12.12-.12h4.496c.326.013.65.049.97.108a5.86 5.86 0 0 1 1.877.695c.385.227.74.5 1.055.816.238.246.452.513.642.797.188.288.345.596.468.917.015.084.095.14.18.126h1.072c.138 0 .138 0 .144.132v.984c0 .095-.036.12-.132.12h-.828c-.083 0-.108 0-.101.108.032.365.032.731 0 1.096 0 .102 0 .114.114.114h.947c.041.054 0 .108 0 .163.006.07.006.14 0 .209v.726c0 .101-.03.132-.12.132h-1.134a.15.15 0 0 0-.174.114 4.794 4.794 0 0 1-1.259 1.834 7.22 7.22 0 0 1-.641.515c-.24.139-.474.282-.72.396a6.482 6.482 0 0 1-1.415.45c-.462.082-.931.12-1.402.114H8.497v-.006l.002-.002z" fill="#FEFEFD" fill-rule="nonzero"/>
    </g>
</svg>
