<svg width="10" height="9" viewBox="0 0 10 9" fill="none" xmlns="http://www.w3.org/2000/svg">
<path d="M4.26145 0.414825L0.11437 7.40029C0.0394591 7.52643 1.38644e-05 7.66954 3.65418e-09 7.81521C-1.38571e-05 7.96089 0.0394041 8.104 0.114291 8.23016C0.189178 8.35632 0.296894 8.46109 0.426612 8.53392C0.556329 8.60675 0.703475 8.64509 0.853258 8.64508H9.14674C9.29653 8.64509 9.44367 8.60675 9.57339 8.53392C9.7031 8.46109 9.81082 8.35632 9.88571 8.23016C9.9606 8.104 10 7.96089 10 7.81521C9.99999 7.66954 9.96054 7.52643 9.88563 7.40029L5.739 0.414825C5.66412 0.288702 5.55643 0.183969 5.42675 0.111152C5.29707 0.0383349 5.14997 0 5.00022 0C4.85048 0 4.70337 0.0383349 4.57369 0.111152C4.44401 0.183969 4.33632 0.288702 4.26145 0.414825Z" fill="#EE404C"/>
<path d="M5.05427 2.56982H4.9461C4.67977 2.56982 4.46387 2.7798 4.46387 3.03883V5.28057C4.46387 5.53959 4.67977 5.74957 4.9461 5.74957H5.05427C5.3206 5.74957 5.5365 5.53959 5.5365 5.28057V3.03883C5.5365 2.7798 5.3206 2.56982 5.05427 2.56982Z" fill="white"/>
<path d="M5.00018 7.52716C5.29638 7.52716 5.5365 7.29362 5.5365 7.00552C5.5365 6.71743 5.29638 6.48389 5.00018 6.48389C4.70398 6.48389 4.46387 6.71743 4.46387 7.00552C4.46387 7.29362 4.70398 7.52716 5.00018 7.52716Z" fill="white"/>
</svg>
