<svg width="70" height="70" viewBox="0 0 70 70" xmlns="http://www.w3.org/2000/svg">
    <defs>
        <radialGradient cx="50%" cy="50%" fx="50%" fy="50%" r="50%" id="a">
            <stop stop-color="#50AF95" offset="0%"/>
            <stop stop-color="#103051" offset="100%"/>
        </radialGradient>
    </defs>
    <g fill="none" fill-rule="evenodd">
        <circle stroke="#50AF95" stroke-width="6" fill="url(#a)" cx="35" cy="35" r="32"/>
        <path d="M38.903 37.028c-.203.015-1.249.077-3.582.077-1.856 0-3.174-.055-3.636-.077-7.173-.316-12.526-1.564-12.526-3.06 0-1.494 5.353-2.74 12.526-3.061v4.877a54.03 54.03 0 0 0 3.668.113c2.227 0 3.342-.092 3.543-.111V30.91c7.157.319 12.499 1.567 12.499 3.059 0 1.491-5.34 2.74-12.5 3.057l.008.002zm0-6.622V26.04h9.988v-6.656H21.696v6.656h9.987v4.363c-8.117.373-14.221 1.98-14.221 3.907s6.104 3.533 14.221 3.908v13.987h7.218V38.214c8.099-.373 14.193-1.98 14.193-3.904 0-1.925-6.09-3.532-14.193-3.906l.002.002z" fill="#FFF"/>
    </g>
</svg>
