<svg width="16" height="16" viewBox="0 0 16 16" fill="none" xmlns="http://www.w3.org/2000/svg">
<path d="M13.9792 2.021H12.5208C11.9579 2.021 11.5 2.47891 11.5 3.04183V9.75016C11.5 10.3131 11.9579 10.771 12.5208 10.771H13.9792C14.5421 10.771 15 10.3131 15 9.75016V3.04183C15 2.47891 14.5421 2.021 13.9792 2.021Z" fill="white"/>
<path d="M7.54442 15C8.12775 15 8.41942 14.7083 8.41942 13.25C8.41942 11.864 9.76167 10.7487 10.625 10.1741V2.94775C9.69108 2.5155 7.8215 1.875 4.91942 1.875H3.98608C2.84858 1.875 1.88025 2.69167 1.68775 3.81167L1.03442 7.60333C0.789416 9.0325 1.88608 10.3333 3.33275 10.3333H6.08608C6.08608 10.3333 5.64858 11.2083 5.64858 12.6667C5.64858 14.4167 6.96108 15 7.54442 15Z" fill="white"/>
</svg>
