<svg width="12" height="13" viewBox="0 0 12 13" fill="none" xmlns="http://www.w3.org/2000/svg">
<path fill-rule="evenodd" clip-rule="evenodd" d="M6 0.576172C6.60249 0.576172 7.09091 1.06459 7.09091 1.66708L7.09 5.48517L10.9091 5.48526C11.5116 5.48526 12 5.97368 12 6.57617C12 7.17866 11.5116 7.66708 10.9091 7.66708L7.09 7.66617L7.09091 11.4853C7.09091 12.0878 6.60249 12.5762 6 12.5762C5.39751 12.5762 4.90909 12.0878 4.90909 11.4853L4.909 7.66617L1.09091 7.66708C0.488417 7.66708 0 7.17866 0 6.57617C0 5.97368 0.488417 5.48526 1.09091 5.48526L4.909 5.48517L4.90909 1.66708C4.90909 1.06459 5.39751 0.576172 6 0.576172Z" fill="#1AF6D6"/>
</svg>
