<svg width="14" height="13" viewBox="0 0 14 13" fill="none" xmlns="http://www.w3.org/2000/svg">
<path fill-rule="evenodd" clip-rule="evenodd" d="M1.66636 6.99989C1.66636 3.63322 4.44636 0.906552 7.83969 0.999885C10.9664 1.08655 13.5797 3.69989 13.6664 6.82655C13.7597 10.2199 11.033 12.9999 7.66636 12.9999C6.27303 12.9999 4.99969 12.5266 3.98636 11.7266C3.67303 11.4866 3.65303 11.0132 3.93303 10.7332C4.17303 10.4932 4.54636 10.4732 4.81303 10.6799C5.5997 11.2999 6.59303 11.6666 7.66636 11.6666C10.2664 11.6666 12.3664 9.53988 12.333 6.93322C12.2997 4.45322 10.213 2.36655 7.73303 2.33322C5.11969 2.29989 2.99969 4.39989 2.99969 6.99989H4.19303C4.49303 6.99989 4.63969 7.35989 4.43303 7.56655L2.57303 9.43322C2.43969 9.56655 2.23303 9.56655 2.09969 9.43322L0.239695 7.56655C0.0263615 7.35989 0.173028 6.99989 0.473028 6.99989H1.66636ZM6.99969 4.83322C6.99969 4.55989 7.22636 4.33322 7.49969 4.33322C7.77303 4.33322 7.99969 4.55989 7.99969 4.82655V7.09322L9.91969 8.23322C10.153 8.37322 10.233 8.67989 10.093 8.91989C9.95303 9.15322 9.64636 9.23322 9.40636 9.09322L7.32636 7.85989C7.12636 7.73989 6.99969 7.51989 6.99969 7.28655V4.83322Z" fill="white"/>
</svg>
