<svg width="70" height="70" viewBox="0 0 70 70" xmlns="http://www.w3.org/2000/svg">
    <defs>
        <radialGradient cx="50%" cy="50%" fx="50%" fy="50%" r="50%" id="a">
            <stop stop-color="#F5AC37" offset="0%"/>
            <stop stop-color="#103051" offset="100%"/>
        </radialGradient>
    </defs>
    <g fill="none" fill-rule="evenodd">
        <circle stroke="#F5AC37" stroke-width="6" fill="url(#a)" cx="35" cy="35.364" r="32"/>
        <path d="M35.132 37.648h9.813c.209 0 .308 0 .323-.275.08-.998.08-2.002 0-3.001 0-.194-.097-.275-.307-.275H25.43c-.241 0-.306.08-.306.307v2.873c0 .37 0 .37.387.37h9.62zm9.04-6.908a.314.314 0 0 0 0-.226 6.382 6.382 0 0 0-.584-1.016 8.234 8.234 0 0 0-1.194-1.502 3.96 3.96 0 0 0-.743-.726 11.602 11.602 0 0 0-4.842-2.453c-.901-.203-1.821-.3-2.744-.29h-8.667c-.242 0-.275.096-.275.306v5.73c0 .24 0 .306.307.306h18.626s.161-.033.194-.13h-.08.002zm0 10.265c-.274-.03-.551-.03-.825 0h-17.9c-.241 0-.322 0-.322.323v5.602c0 .258 0 .323.323.323h8.263c.396.03.79.002 1.178-.08 1.199-.087 2.379-.347 3.504-.776.409-.142.804-.326 1.177-.548h.112a10.486 10.486 0 0 0 4.504-4.534s.112-.244-.014-.308v-.002zm-22.29 9.152v-8.925c0-.21 0-.242-.259-.242H18.12c-.194 0-.274 0-.274-.258v-3.067h3.745c.209 0 .29 0 .29-.274v-3.035c0-.194 0-.241-.258-.241H18.12c-.194 0-.274 0-.274-.258v-2.84c0-.178 0-.226.258-.226h3.47c.242 0 .307 0 .307-.307v-8.7c0-.257 0-.322.323-.322H34.31c.878.034 1.751.13 2.615.29 1.779.329 3.488.965 5.051 1.872 1.037.61 1.991 1.347 2.84 2.196.64.663 1.216 1.381 1.728 2.146.507.775.93 1.604 1.26 2.47a.42.42 0 0 0 .483.339h2.889c.37 0 .37 0 .387.355v2.648c0 .258-.097.323-.356.323h-2.228c-.225 0-.29 0-.274.29.088.984.088 1.97 0 2.953 0 .275 0 .307.308.307h2.549c.112.145 0 .29 0 .437a3.26 3.26 0 0 1 0 .564v1.953c0 .274-.08.356-.323.356h-3.051a.404.404 0 0 0-.468.307 12.907 12.907 0 0 1-3.39 4.939 19.44 19.44 0 0 1-1.727 1.387c-.646.372-1.275.76-1.938 1.066-1.219.548-2.497.953-3.809 1.21a19.86 19.86 0 0 1-3.777.307H21.876v-.017l.005-.003z" fill="#FEFEFD" fill-rule="nonzero"/>
    </g>
</svg>
