<svg width="12" height="12" viewBox="0 0 12 12" fill="none" xmlns="http://www.w3.org/2000/svg">
<path d="M7.42618 6.00053L11.7046 1.72173C12.0985 1.32786 12.0985 0.689271 11.7046 0.295458C11.3108 -0.0984107 10.6723 -0.0984107 10.2785 0.295458L5.99998 4.57432L1.72148 0.295402C1.32765 -0.0984672 0.68917 -0.0984672 0.295334 0.295402C-0.0984448 0.689271 -0.0984448 1.32786 0.295334 1.72167L4.57383 6.00047L0.295334 10.2793C-0.0984448 10.6732 -0.0984448 11.3118 0.295334 11.7056C0.68917 12.0995 1.32765 12.0995 1.72148 11.7056L5.99998 7.42674L10.2785 11.7056C10.6723 12.0995 11.3108 12.0995 11.7046 11.7056C12.0985 11.3117 12.0985 10.6732 11.7046 10.2793L7.42618 6.00053Z" fill="white"/>
</svg>
