<svg width="26" height="26" viewBox="0 0 26 26" xmlns="http://www.w3.org/2000/svg">
    <defs>
        <radialGradient cx="50%" cy="50%" fx="50%" fy="50%" r="50%" id="a">
            <stop stop-color="#F7931A" offset="0%"/>
            <stop stop-color="#103051" offset="100%"/>
        </radialGradient>
    </defs>
    <g fill="none" fill-rule="evenodd">
        <circle stroke="#F7931A" stroke-width="2" fill="url(#a)" cx="13" cy="13" r="11.636"/>
        <path d="M17.971 10.849c.23-1.53-.936-2.35-2.529-2.899l.517-2.07-1.261-.315-.503 2.016c-.332-.082-.673-.16-1.011-.237l.506-2.03L12.43 5l-.517 2.07a41.73 41.73 0 0 1-.806-.19l.001-.006-1.74-.434-.335 1.347s.936.214.916.227c.511.128.604.466.588.733l-.588 2.36c.035.008.08.021.13.041l-.133-.032-.825 3.304c-.062.155-.22.388-.578.3.013.018-.917-.229-.917-.229L7 15.934l1.642.409c.305.076.605.156.9.232l-.523 2.094 1.26.314.517-2.072c.345.093.679.18 1.006.26l-.515 2.063 1.261.314.522-2.09c2.152.407 3.77.243 4.45-1.702.549-1.565-.027-2.468-1.16-3.057.825-.19 1.446-.731 1.612-1.85zm-2.882 4.038c-.39 1.565-3.028.72-3.883.507l.693-2.775c.855.214 3.597.636 3.19 2.268zm.39-4.061c-.356 1.424-2.551.7-3.263.523l.628-2.517c.712.178 3.005.509 2.635 1.994z" fill="#FFF" fill-rule="nonzero"/>
    </g>
</svg>
