<svg width="12" height="12" viewBox="0 0 12 12" fill="none" xmlns="http://www.w3.org/2000/svg">
<path fill-rule="evenodd" clip-rule="evenodd" d="M6 0C6.60249 0 7.09091 0.488417 7.09091 1.09091L7.09 4.909L10.9091 4.90909C11.5116 4.90909 12 5.39751 12 6C12 6.60249 11.5116 7.09091 10.9091 7.09091L7.09 7.09L7.09091 10.9091C7.09091 11.5116 6.60249 12 6 12C5.39751 12 4.90909 11.5116 4.90909 10.9091L4.909 7.09L1.09091 7.09091C0.488417 7.09091 0 6.60249 0 6C0 5.39751 0.488417 4.90909 1.09091 4.90909L4.909 4.909L4.90909 1.09091C4.90909 0.488417 5.39751 0 6 0Z" fill="#032E49"/>
</svg>
