<svg width="60" height="60" viewBox="0 0 60 60" fill="none" xmlns="http://www.w3.org/2000/svg">
<path d="M42.7708 57.8568H3.30339C2.66262 57.8568 2.14258 57.3368 2.14258 56.696C2.14258 56.0552 2.66262 55.5352 3.30339 55.5352H42.7708C43.4116 55.5352 43.9317 56.0552 43.9317 56.696C43.9317 57.3368 43.4116 57.8568 42.7708 57.8568Z" fill="#7D929E" stroke="#7D929E"/>
<path d="M51.7528 24.6302C51.7481 24.6302 51.7458 24.6302 51.7412 24.6302C50.8079 24.6278 49.9326 24.2587 49.2756 23.597L36.451 10.6262C35.1091 9.26802 35.1161 7.0648 36.4673 5.71594L39.021 3.16216C40.3769 1.80402 42.5894 1.80402 43.9452 3.16216L56.8441 16.0587C58.2022 17.4169 58.2022 19.6271 56.8441 20.9852L54.216 23.6133C53.5567 24.268 52.6838 24.6302 51.7528 24.6302ZM41.482 4.45995C41.1848 4.45995 40.8876 4.57139 40.6601 4.7989L38.1063 7.35268C37.6559 7.80308 37.6536 8.53671 38.0994 8.98942L50.924 21.9603C51.1422 22.1808 51.4347 22.3039 51.7458 22.3039C52.0151 22.2366 52.3494 22.1855 52.57 21.9626L55.1981 19.3369C55.6508 18.8842 55.6508 18.1482 55.1981 17.6932L42.2992 4.79658C42.0763 4.57371 41.7791 4.45995 41.482 4.45995ZM37.2891 6.53315H37.3123H37.2891Z" fill="#7D929E" stroke="#7D929E"/>
<path d="M15.7336 31.3588C15.2345 31.3588 14.7725 31.0337 14.6216 30.5323C14.2199 29.1973 14.0156 27.8113 14.0156 26.4137C14.0156 24.2198 14.5403 22.005 15.527 20.0037C17.3959 16.2683 20.8017 13.5334 24.8738 12.4956L37.573 9.2686C38.1999 9.10144 38.8244 9.48683 38.9823 10.1067C39.1401 10.7266 38.764 11.3604 38.1442 11.5159L25.4449 14.743C22.0275 15.6159 19.1719 17.9096 17.6072 21.0369C16.7783 22.7154 16.3372 24.575 16.3372 26.4137C16.3372 27.5838 16.5067 28.7446 16.8434 29.866C17.0291 30.4789 16.6808 31.1266 16.0656 31.3123C15.9542 31.3425 15.8427 31.3588 15.7336 31.3588Z" fill="#7D929E" stroke="#7D929E"/>
<path d="M28.2221 47.3914C26.3555 47.3914 24.67 46.4302 23.7112 44.8213C22.4877 42.7644 22.8824 40.0713 24.67 38.2744L32.8676 30.0628C31.8925 28.895 30.4624 28.2566 28.893 28.3355C27.2377 28.4214 25.7565 29.3338 24.9347 30.7755C24.612 31.3351 23.8992 31.5231 23.349 31.2074C22.7941 30.8893 22.5991 30.1812 22.9149 29.624C24.1314 27.4951 26.3207 26.1462 28.77 26.0162C31.21 25.8839 33.5386 27.0006 34.9733 28.9925L35.3355 29.4963C35.6605 29.949 35.6187 30.5712 35.2333 30.9752L26.3091 39.9134C25.2875 40.9419 25.0298 42.5067 25.7008 43.6327C26.6503 45.2322 29.023 45.4992 30.3231 44.2015L40.4036 33.9631L48.4851 21.51C48.8357 20.9714 49.5554 20.8205 50.0894 21.1687C50.6256 21.5169 50.7789 22.2366 50.4283 22.7729L42.2818 35.3259C42.24 35.3932 42.1912 35.4536 42.1355 35.5116L31.9691 45.8382C30.9709 46.8411 29.6406 47.3914 28.2221 47.3914Z" fill="#7D929E" stroke="#7D929E"/>
<path d="M38.1645 57.8584H7.94401C7.30325 57.8584 6.7832 57.3384 6.7832 56.6976V31.1598C6.7832 30.5191 7.30325 29.999 7.94401 29.999H33.4145C34.0552 29.999 34.5753 30.5191 34.5753 31.1598C34.5753 31.8006 34.0552 32.3206 33.4145 32.3206H9.10482V55.5368H37.0037V37.8972C37.0037 37.2564 37.5237 36.7364 38.1645 36.7364C38.8053 36.7364 39.3253 37.2564 39.3253 37.8972V56.6976C39.3253 57.3384 38.8053 57.8584 38.1645 57.8584Z" fill="#7D929E" stroke="#7D929E"/>
</svg>
