<svg width="16" height="16" viewBox="0 0 16 16" xmlns="http://www.w3.org/2000/svg">
    <g fill="#032E49" fill-rule="nonzero">
        <path d="M13.517 8.676H5.09a.727.727 0 0 1 0-1.454h8.426l-.94-.94a.727.727 0 1 1 1.028-1.029l2.182 2.182a.717.717 0 0 1 .048.053l.01.014a.695.695 0 0 1 .032.043l.008.013.029.048.005.01c.009.018.018.036.025.054l.003.007.021.06.002.008c.006.02.012.04.016.061.001.006.001.013.003.019a.68.68 0 0 1 .007.197c-.001.018-.004.035-.007.052l-.003.018a.722.722 0 0 1-.016.062c0 .002 0 .005-.002.007a.725.725 0 0 1-.021.06l-.003.007a.707.707 0 0 1-.025.055l-.005.01a.732.732 0 0 1-.029.048l-.008.012a.742.742 0 0 1-.032.044l-.01.014a.75.75 0 0 1-.048.053l-2.182 2.181a.725.725 0 0 1-1.028 0 .727.727 0 0 1 0-1.028l.94-.94z"/>
        <path d="M5.95 2c1.984 0 3.831.985 4.94 2.634a.727.727 0 0 1-1.207.812 4.492 4.492 0 0 0-3.734-1.992A4.5 4.5 0 0 0 1.455 7.95a4.494 4.494 0 0 0 8.222 2.512.727.727 0 0 1 1.205.815 5.946 5.946 0 0 1-4.933 2.622A5.956 5.956 0 0 1 0 7.95C0 4.67 2.669 2 5.95 2z"/>
    </g>
</svg>
