<svg width="24" height="24" viewBox="0 0 24 24" fill="none" xmlns="http://www.w3.org/2000/svg">
<path fill-rule="evenodd" clip-rule="evenodd" d="M12 3C12.9037 3 13.6364 3.73262 13.6364 4.63636L13.635 10.3635L19.3636 10.3636C20.2674 10.3636 21 11.0963 21 12C21 12.9037 20.2674 13.6364 19.3636 13.6364L13.635 13.635L13.6364 19.3636C13.6364 20.2674 12.9037 21 12 21C11.0963 21 10.3636 20.2674 10.3636 19.3636L10.3635 13.635L4.63636 13.6364C3.73262 13.6364 3 12.9037 3 12C3 11.0963 3.73262 10.3636 4.63636 10.3636L10.3635 10.3635L10.3636 4.63636C10.3636 3.73262 11.0963 3 12 3Z" fill="#1AF6D6"/>
</svg>
