<svg width="37" height="35" viewBox="0 0 37 35" xmlns="http://www.w3.org/2000/svg">
    <g fill-rule="nonzero" stroke-width=".611" fill="none" stroke-linecap="round" stroke-linejoin="round">
        <path stroke="#E17726" fill="#E17726" d="m34.252 1-13.65 10.323 2.538-6.092z"/>
        <g fill="#E27625" stroke="#E27625">
            <path d="m2.706 1 13.567 10.408L13.86 5.23zM29.341 24.904l-3.662 5.67 7.824 2.2 2.206-7.743zM1.291 25.03l2.206 7.743 7.782-2.2-3.62-5.67z"/>
            <path d="M10.863 15.342 8.7 18.685l7.7.338-.25-8.461zM26.137 15.342l-5.369-4.865-.166 8.546 7.699-.338zM11.28 30.573l4.66-2.285-4.036-3.215zM21.06 28.288l4.619 2.285-.624-5.5z"/>
        </g>
        <g fill="#D5BFB2" stroke="#D5BFB2">
            <path d="m25.679 30.573-4.62-2.285.375 3.047-.042 1.311zM11.28 30.573l4.328 2.073-.042-1.311.375-3.047z"/>
        </g>
        <path stroke="#233447" fill="#233447" d="M15.69 23.042 11.82 21.9l2.706-1.27zM21.31 23.042l1.123-2.411L25.18 21.9z"/>
        <g fill="#CC6228" stroke="#CC6228">
            <path d="m11.28 30.573.665-5.67-4.286.128zM25.055 24.904l.624 5.67 3.662-5.543zM28.3 18.685l-7.698.338.707 4.02 1.124-2.412L25.18 21.9zM11.82 21.9l2.706-1.27 1.165 2.412.707-4.019-7.699-.338z"/>
        </g>
        <g fill="#E27525" stroke="#E27525">
            <path d="m8.7 18.685 3.204 6.388-.084-3.173zM25.18 21.9l-.125 3.173 3.246-6.388zM16.398 19.023l-.707 4.02.874 4.78.208-6.304zM20.602 19.023l-.375 2.496.167 6.304.915-4.78z"/>
        </g>
        <path stroke="#F5841F" fill="#F5841F" d="m21.31 23.042-.916 4.781.665.465 3.996-3.215.125-3.173zM11.82 21.9l.084 3.173 4.037 3.215.624-.465-.874-4.78z"/>
        <path stroke="#C0AC9D" fill="#C0AC9D" d="m21.392 32.646.042-1.311-.375-.297H15.9l-.333.297.042 1.311-4.329-2.073 1.499 1.27L15.858 34H21.1l3.08-2.158 1.498-1.269z"/>
        <path stroke="#161616" fill="#161616" d="m21.06 28.288-.666-.465h-3.83l-.623.465-.375 3.047.333-.297h5.16l.375.297z"/>
        <g fill="#763E1A" stroke="#763E1A">
            <path d="M34.835 12 36 6.288 34.252 1 21.06 10.985l5.078 4.357 7.158 2.116 1.581-1.862-.666-.508 1.083-1.015-.833-.677 1.082-.846zM1 6.288 2.165 12l-.749.55 1.082.846-.832.677 1.124 1.015-.708.508 1.581 1.862 7.2-2.116 5.078-4.357L2.706 1z"/>
        </g>
        <path stroke="#F5841F" fill="#F5841F" d="m33.295 17.458-7.158-2.116 2.164 3.343-3.246 6.388 4.286-.042h6.368zM10.863 15.342l-7.2 2.116-2.372 7.573H7.66l4.245.042-3.205-6.388zM20.602 19.023l.457-8.038L23.14 5.23h-9.28l2.08 5.754.458 8.038.167 2.539v6.261h3.829v-6.261z"/>
    </g>
</svg>
