<svg xmlns="http://www.w3.org/2000/svg" xmlns:xlink="http://www.w3.org/1999/xlink" width="24" height="24" viewBox="0 0 24 24">
    <defs>
        <radialGradient id="e2vylw8aja" cx="50%" cy="50%" r="50%" fx="50%" fy="50%">
            <stop offset="0%" stop-color="#A36F1E"/>
            <stop offset="100%" stop-color="#0B2B4D"/>
        </radialGradient>
        <path id="g14atkqh7b" d="M0 0L8.182 0 8.182 10.909 0 10.909z"/>
    </defs>
    <g fill="none" fill-rule="evenodd">
        <g>
            <g>
                <g transform="translate(-307 -157) translate(90 147) translate(217 10)">
                    <circle cx="12" cy="12" r="9.5" stroke="#00254B" stroke-width="3"/>
                    <circle cx="12" cy="12" r="9" fill="url(#e2vylw8aja)" stroke="#FCAF38" stroke-width="2"/>
                    <g transform="translate(7.455 6.545)">
                        <mask id="qehhorxmrc" fill="#fff">
                            <use xlink:href="#g14atkqh7b"/>
                        </mask>
                        <path fill="#FFF" d="M6.307 4.369c-.265 1.067-1.898.525-2.427.392l.467-1.887c.53.133 2.235.381 1.96 1.495m-.29 3.045c-.29 1.173-2.252.54-2.889.38l.516-2.08c.636.159 2.676.476 2.372 1.7M8.16 4.386c.17-1.147-.696-1.763-1.88-2.174L6.663.66 5.725.424l-.374 1.512c-.246-.062-.5-.12-.751-.179L4.976.236 4.04 0l-.385 1.552c-.204-.047-.404-.093-.599-.142l.001-.004-1.294-.326-.25 1.01s.697.16.682.17c.38.096.449.35.437.55l-.438 1.769c.027.007.06.017.098.031l-.1-.024-.613 2.478c-.046.116-.164.29-.43.224.01.014-.682-.171-.682-.171L0 8.199l1.221.307c.227.057.45.117.67.174l-.39 1.57.938.236.385-1.555c.256.07.504.135.747.196l-.383 1.547.938.235.389-1.567c1.6.305 2.803.182 3.31-1.276.408-1.173-.02-1.85-.863-2.292.613-.143 1.075-.55 1.198-1.388" mask="url(#qehhorxmrc)"/>
                    </g>
                </g>
            </g>
        </g>
    </g>
</svg>
