<svg xmlns="http://www.w3.org/2000/svg" width="20" height="20" viewBox="0 0 20 20">
    <defs>
        <radialGradient id="1mqt9qqhda" cx="50%" cy="50%" r="50%" fx="50%" fy="50%">
            <stop offset="0%" stop-color="#2E9AD0"/>
            <stop offset="100%" stop-color="#0B2B4D"/>
        </radialGradient>
    </defs>
    <g fill="none" fill-rule="evenodd">
        <g>
            <g>
                <g>
                    <g fill="url(#1mqt9qqhda)" stroke="#2E9AD0" stroke-width="2" transform="translate(-605 -159) translate(90 147) translate(515 12) translate(1.818 1.818)">
                        <circle cx="8.182" cy="8.182" r="9.182"/>
                    </g>
                    <g fill="#FFF" fill-rule="nonzero">
                        <path d="M9.703 8.164c-.07 0-.131.013-.185.034-.059.024-.111.056-.155.097l-.926-.838.712-2.304h.025c.094 0 .178-.036.252-.108.07-.072.107-.163.107-.274 0-.105-.036-.195-.107-.27-.074-.072-.158-.108-.251-.108H9.149l-.623-2.016c.049-.03.09-.074.121-.13.029-.052.046-.114.048-.186 0-.105-.036-.195-.107-.27-.071-.075-.157-.112-.258-.112-.044.002-.087.01-.125.024-.043.015-.079.04-.107.069L6.452.525 6.475.46l.002-.077c0-.105-.036-.195-.107-.27C6.296.038 6.212 0 6.119 0c-.089.006-.165.033-.229.081-.069.054-.111.124-.125.209H3.768c-.017-.077-.06-.145-.125-.205C3.576.029 3.502 0 3.422 0c-.104 0-.19.038-.259.112-.072.075-.107.165-.107.27 0 .029.002.055.008.077.005.024.01.046.018.066L1.436 1.772c-.035-.03-.07-.054-.103-.07-.043-.013-.086-.02-.13-.023-.103 0-.19.037-.258.112-.072.075-.107.165-.107.27 0 .072.016.134.048.185.029.057.07.102.122.131h.007L.39 4.381H.365c-.103 0-.19.038-.258.112-.072.075-.107.165-.107.27 0 .108.035.199.107.27.068.076.155.112.258.112H.383l.632 2.023c-.057.034-.1.078-.13.131-.032.054-.047.117-.047.186 0 .108.035.198.107.27.068.075.155.112.258.112.043 0 .087-.008.13-.024.033-.013.067-.033.102-.062l1.646 1.24c-.007.023-.012.048-.017.069-.006.024-.008.05-.008.073 0 .107.035.198.107.27.068.075.155.112.258.112.08 0 .155-.028.222-.08.065-.05.108-.12.125-.21h1.996c.013.09.056.16.126.21.064.052.14.08.229.08.093 0 .177-.037.25-.112.072-.072.108-.163.108-.27l-.003-.073-.023-.07L8.33 7.604l.919.83c-.026.038-.044.083-.056.13-.015.055-.02.106-.018.152-.002.152.05.28.155.386.1.107.226.162.373.162.142 0 .266-.055.37-.162.1-.107.151-.234.154-.386-.002-.152-.054-.283-.155-.394-.103-.105-.227-.158-.369-.158zm-1.31-5.617l.587 1.907c-.043.026-.076.059-.1.097-.028.036-.047.079-.06.127h-.302c-.015-.066-.043-.124-.085-.17-.047-.045-.098-.082-.155-.108l.115-1.853zm-.17-.124l-.125 1.97h-.01c-.008.002-.013.005-.016.007l-.749-1.49c.036-.028.068-.07.093-.123.02-.049.03-.102.033-.159l-.003-.027c-.005-.01-.007-.023-.002-.038l.605-.27c.02.028.046.055.082.077.022.029.053.044.088.046l.004.007zM6.183 4.4c-.006.002-.013.002-.026-.003l-.037-.002-.052.002c-.018.006-.036.011-.055.011l-.997-1.814c.018-.013.033-.036.048-.062l.04-.07 1.613.213c.002.054.018.1.045.135.02.045.051.08.088.108L6.182 4.4zm.83-1.397l.037.002c.007.006.017.008.033.002.013.003.026.002.04-.002.013-.002.028-.008.048-.016l.75 1.494c-.033.029-.057.059-.07.089-.023.034-.036.069-.038.104H6.47l-.044-.104c-.02-.03-.045-.06-.074-.089l.66-1.48zM5.86 4.5c-.025.027-.043.053-.055.081-.015.03-.029.061-.04.097H3.769c-.005-.036-.018-.068-.037-.097l-.059-.08 1.004-1.815.04.002c.013.006.03.009.052.003.018.002.033.001.048-.003l.048-.002.996 1.814zm-2.339-.092c-.023-.002-.04-.006-.052-.011-.015-.002-.031-.002-.048-.002l-.037.002c-.015.006-.027.008-.033.002l-.668-1.482c.034-.028.064-.064.089-.108.02-.036.034-.08.044-.135L4.43 2.45c.012.037.025.064.04.081.01.026.026.047.048.062l-.996 1.815zm-.332.077c-.033.024-.057.051-.074.08-.025.037-.039.075-.04.113H1.74l-.045-.1c-.02-.03-.045-.06-.073-.085l.749-1.49.04.002c.013.006.028.008.048.002.01.003.023.002.037-.002.01-.002.023-.002.037-.002l.657 1.482zm-1.45.382h1.324c.01.045.027.082.052.112.018.034.042.061.074.081l-.668 1.482h-.111c-.015.003-.028.008-.04.011l-.75-1.502c.03-.02.054-.05.074-.085.014-.03.03-.063.045-.1v.001zm1.612.278l.033.002c.01.009.023.011.037.003.018.006.035.002.052-.003.018-.001.033-.005.048-.01l.996 1.806c-.022.022-.038.044-.048.066l-.04.073-1.613-.212c-.01-.045-.025-.09-.044-.135-.025-.037-.054-.074-.089-.108l.668-1.482zm.321-.1c.02-.021.039-.05.06-.081.02-.028.03-.06.036-.097h1.997c.001.037.015.069.036.097.018.03.037.059.06.08l-.997 1.807c-.015.003-.03.002-.044-.002-.018-.006-.035-.008-.052-.008-.023 0-.04.002-.051.008-.016.006-.032.01-.049.01v-.008l-.996-1.806zm2.34.092c.02.006.037.011.051.011.013.008.028.01.048.002.013.006.03.003.045-.002.01-.002.023-.002.037-.002h-.01l.668 1.482c-.036.034-.064.07-.085.108-.023.044-.036.09-.037.135l-1.624.212c-.015-.021-.027-.044-.033-.073l-.045-.066.985-1.807zm.332-.077c.027-.021.051-.047.074-.08.02-.03.037-.068.051-.113h1.344c.012.037.026.07.044.1.013.034.039.06.074.078l-.768 1.51c-.015-.007-.028-.009-.04-.012H7.013L6.345 5.06zM6.353.671l1.638 1.25c-.008.022-.013.044-.015.066-.008.03-.01.054-.01.074-.003.016-.002.026.002.03.005.011.008.022.008.035v-.01l-.61.282c-.034-.04-.075-.078-.12-.108-.052-.028-.107-.043-.163-.043H7.05c-.018.003-.03.008-.037.01h.007L6.345.684V.68c0-.005.002-.008.008-.008V.671zM5.98.737c.02.01.041.018.066.018.02.006.042.008.067.008.01.006.023.003.037-.002.008-.002.018-.003.033-.003l.68 1.575c-.033.019-.057.042-.071.07-.02.029-.036.059-.048.089l-1.62-.224c-.002-.033-.01-.067-.023-.1-.015-.033-.031-.062-.048-.085L5.98.737zM3.77.478h1.996c.001.027.01.051.026.073.012.03.027.053.044.074l-.945 1.332c-.017-.002-.036-.006-.055-.011-.025-.002-.047-.002-.067-.002l-.074.002c-.022.006-.043.013-.062.024v-.01L3.699.626c.013-.02.03-.043.044-.07.013-.018.02-.043.026-.077V.478zm-.347.286c.02 0 .042-.002.07-.008.02-.002.042-.008.063-.019l.937 1.343c-.025.024-.043.053-.056.085-.015.034-.022.068-.025.1l-1.62.225-.045-.089c-.022-.028-.043-.051-.062-.07L3.36.756l.026.003c.01.008.022.01.037.002v.003zM3.19.67V.68c0 .006.002.008.01.003l-.679 1.575-.03-.011H2.46c-.062 0-.117.013-.163.042-.052.031-.093.068-.122.108l-.616-.281c.005-.002.009-.011.011-.027v-.035l-.01-.074c-.008-.02-.014-.039-.016-.058L3.19.671zm-1.7 1.621l.615.27c-.007.016-.01.03-.01.04v.038c-.002.052.008.101.033.147.02.054.05.095.093.123L1.47 4.4H1.454L1.32 2.416c.034-.01.067-.028.1-.054.028-.021.052-.043.07-.07zm-.34 4.706L.555 5.091c.036-.021.07-.055.1-.097.024-.032.044-.075.06-.127h.32c.017.062.046.117.089.162.038.05.086.086.144.108h.007L1.15 6.998zm-.115-2.32h-.32c-.006-.045-.024-.09-.052-.135-.036-.038-.069-.07-.1-.097l.587-1.899.125 1.86c-.062.027-.112.064-.151.109-.043.049-.072.103-.089.162zm.284 2.451l.133-1.984h.018l.75 1.49c-.043.037-.074.078-.093.124-.025.052-.036.105-.033.158v.03c0 .012.002.022.01.036l-.616.27c-.025-.03-.05-.056-.074-.077-.028-.014-.06-.031-.096-.047h.001zM3.19 8.874l-1.646-1.24c.002-.02.007-.041.015-.065.005-.021.008-.048.011-.077v-.035l-.01-.038v.01l.608-.282c.031.045.072.08.122.108.049.03.103.043.162.043h.037c.008 0 .018-.003.033-.01l.68 1.574-.01.01-.002.002zm.365-.066c-.02-.001-.041-.008-.062-.018-.028-.002-.05-.006-.07-.008l-.037.002c-.016.006-.027.008-.034.003h.008l-.675-1.575c.02-.019.04-.04.063-.07.012-.024.03-.055.044-.089H2.8l1.612.213c.002.038.01.074.026.104.013.034.03.065.056.093l-.163.223-.776 1.122zm2.21.259H3.77c-.005-.021-.012-.047-.025-.077-.015-.03-.03-.052-.045-.07l.934-1.351c.02.016.04.024.063.024.02.005.046.008.074.002.02.003.042.002.07-.002.02 0 .042-.008.07-.024h-.008l.934 1.351-.045.073c-.015.028-.022.052-.025.074zm.418-.278c-.015.002-.027.002-.033-.002l-.037-.003-.067.008c-.025.01-.047.019-.066.019l-.938-1.344c.02-.028.042-.058.06-.092.012-.03.02-.066.022-.105l1.62-.212c.013.034.028.063.048.085.018.029.037.053.059.074l-.65 1.517-.018.055zm.17.085h-.008v-.01l.018-.047.656-1.529c.002.008.013.011.03.011h.033c.056 0 .111-.013.163-.039.046-.02.086-.055.121-.104v-.008l.786.355-1.8 1.37zM7.44 6.982c-.002-.013-.001-.023.002-.034.002-.006.003-.016.003-.031-.003-.056-.013-.108-.033-.155-.026-.045-.057-.088-.093-.127l.76-1.498H8.093l.136 2.208-.788-.363zm.838-1.856c.056-.021.107-.054.151-.1.036-.041.063-.094.078-.159h.313c.013.052.032.095.06.127.022.042.056.075.099.097l-.587 1.907-.114-1.872z" transform="translate(-605 -159) translate(90 147) translate(515 12) translate(5.227 5.227)"/>
                    </g>
                </g>
            </g>
        </g>
    </g>
</svg>
