<svg xmlns="http://www.w3.org/2000/svg" width="22" height="22" viewBox="0 0 22 22">
    <defs>
        <radialGradient id="skaxvofpqa" cx="50%" cy="50%" r="41.403%" fx="50%" fy="50%">
            <stop offset="0%" stop-color="#F09241"/>
            <stop offset="100%" stop-color="#0B2B4D"/>
        </radialGradient>
    </defs>
    <g fill="none" fill-rule="evenodd">
        <g>
            <g transform="translate(-280 -50) translate(280 50)">
                <circle cx="11" cy="11" r="10" fill="url(#skaxvofpqa)" stroke="#F09241" stroke-width="2"/>
                <g fill="#FFF" fill-rule="nonzero">
                    <path d="M9.719 2.501l-.327.328c1.618 1.77 1.618 4.483 0 6.253l.327.327c1.8-1.953 1.8-4.962 0-6.915V2.5zM2.836 2.53C4.606.91 7.32.91 9.09 2.53l.328-.327C7.463.402 4.455.402 2.5 2.203l.335.327zM2.53 9.085c-1.617-1.77-1.617-4.48 0-6.25l-.327-.327C.402 4.461.402 7.47 2.203 9.423l.327-.338zM9.085 9.387c-1.77 1.619-4.483 1.619-6.253 0l-.327.328c1.953 1.8 4.962 1.8 6.915 0l-.335-.328zM8.026 4.868c-.066-.683-.655-.912-1.4-.982v-.94H6.05v.922h-.46v-.923h-.572v.947H3.85v.617s.425-.008.419 0c.16-.018.304.094.327.253v2.592c-.003.054-.028.105-.07.14-.04.037-.094.055-.148.05.007.007-.42 0-.42 0l-.108.69h1.157v.961h.576v-.948h.46v.944h.578V8.24c.973-.06 1.651-.3 1.736-1.21.07-.733-.276-1.06-.826-1.193.334-.164.542-.47.495-.97zm-.807 2.048c0 .716-1.227.634-1.617.634V6.28c.39.001 1.617-.11 1.617.636zM6.95 5.127c0 .655-1.023.575-1.348.575V4.548c.325 0 1.348-.103 1.348.58z" transform="translate(5 5)"/>
                    <path d="M5.959 11.92C2.667 11.918-.001 9.25 0 5.96 0 2.667 2.668 0 5.96 0c3.29 0 5.959 2.667 5.96 5.959 0 1.58-.628 3.097-1.746 4.215-1.118 1.118-2.634 1.746-4.215 1.745zm0-11.455C2.926.467.47 2.926.47 5.959c.001 3.032 2.46 5.489 5.492 5.489s5.49-2.457 5.492-5.49c0-1.457-.579-2.855-1.61-3.886C8.815 1.042 7.416.464 5.96.465z" transform="translate(5 5)"/>
                </g>
            </g>
        </g>
    </g>
</svg>
