<svg xmlns="http://www.w3.org/2000/svg" width="22" height="22" viewBox="0 0 22 22">
    <defs>
        <radialGradient id="f311sh79fa" cx="50%" cy="50%" r="50%" fx="50%" fy="50%">
            <stop offset="0%" stop-color="#2E9AD0"/>
            <stop offset="100%" stop-color="#0B2B4D"/>
        </radialGradient>
    </defs>
    <g fill="none" fill-rule="evenodd">
        <g>
            <g>
                <g fill="url(#f311sh79fa)" stroke="#2E9AD0" stroke-width="2" transform="translate(-50 -134) translate(50 134) translate(2 2)">
                    <circle cx="9" cy="9" r="10"/>
                </g>
                <g fill="#FFF" fill-rule="nonzero">
                    <path d="M10.673 8.98c-.076 0-.144.015-.203.038-.065.026-.123.062-.17.106l-1.02-.921.784-2.535h.028c.102 0 .195-.04.276-.119.078-.078.118-.18.118-.301 0-.116-.04-.215-.118-.297-.081-.08-.173-.12-.276-.12h-.028l-.686-2.216c.054-.033.099-.082.134-.144.032-.056.05-.124.053-.204 0-.116-.04-.215-.118-.297-.079-.082-.173-.123-.284-.123-.049.002-.095.011-.138.026-.047.017-.086.043-.118.076L7.097.578l.025-.073c.002-.023.003-.053.003-.085 0-.115-.04-.214-.118-.297C6.926.041 6.834 0 6.73 0c-.098.006-.182.036-.252.09-.076.059-.122.136-.138.229H4.145c-.02-.084-.066-.16-.138-.226C3.934.032 3.852 0 3.764 0c-.114 0-.21.041-.284.123-.08.083-.118.182-.118.297 0 .032.002.061.008.085.006.027.011.05.02.073L1.58 1.949c-.04-.033-.077-.06-.114-.076-.047-.015-.095-.023-.142-.026-.114 0-.21.041-.284.123-.08.083-.118.181-.118.297 0 .08.017.148.053.204.031.062.077.111.134.144h.007L.43 4.82H.402c-.114 0-.21.041-.284.123-.08.083-.118.182-.118.297 0 .12.039.22.118.298.075.082.17.123.284.123h.02l.694 2.225c-.063.037-.11.086-.142.144-.035.06-.053.129-.053.204 0 .119.039.219.118.297.075.083.17.123.284.123.048 0 .096-.008.142-.026.038-.014.075-.036.114-.068l1.81 1.363-.02.077c-.005.026-.008.055-.008.08 0 .119.04.218.118.298.075.082.17.123.284.123.088 0 .17-.03.244-.09.072-.053.119-.13.138-.229H6.34c.014.1.062.176.138.23.07.058.154.089.251.089.103 0 .195-.041.277-.123.078-.08.117-.18.117-.297l-.002-.081c-.009-.023-.017-.049-.025-.077l2.066-1.558 1.01.913c-.027.043-.047.091-.06.144-.017.06-.023.116-.02.166-.003.168.054.308.17.425.111.118.248.178.41.178.157 0 .293-.06.406-.178.11-.117.168-.257.171-.425-.003-.166-.06-.31-.17-.433-.114-.116-.25-.174-.407-.174zm-1.44-6.178l.645 2.097c-.047.03-.084.065-.11.107-.03.04-.052.087-.065.14H9.37c-.017-.073-.047-.136-.093-.187-.052-.05-.109-.09-.171-.119l.126-2.038zm-.188-.136L8.907 4.83h-.01c-.01.003-.015.007-.017.01L8.056 3.2c.04-.03.074-.076.101-.136.022-.053.034-.111.037-.174l-.003-.03c-.006-.011-.008-.026-.002-.042l.665-.297c.023.031.05.06.09.085.025.032.058.049.097.05l.004.009zM6.801 4.84c-.006.003-.014.002-.029-.003-.016-.002-.03-.002-.04-.002l-.057.002c-.02.006-.04.012-.061.012L5.518 2.853c.02-.014.036-.04.053-.068l.044-.076 1.774.233c.002.06.02.11.049.15.022.048.057.087.097.118l-.734 1.63zm.913-1.537l.04.002c.01.007.02.01.037.003.014.003.029.002.045-.003.014-.001.03-.008.053-.017l.824 1.643c-.036.032-.062.065-.078.098-.025.037-.038.076-.04.115H7.117l-.048-.115c-.023-.033-.05-.066-.082-.098l.727-1.628zM6.448 4.95c-.028.03-.048.059-.061.09-.017.031-.032.066-.045.106H4.146c-.006-.04-.02-.075-.04-.107L4.04 4.95l1.104-1.995.044.002c.014.006.033.01.057.003.02.003.037.002.053-.003.014-.002.03-.002.053-.002L6.448 4.95zm-2.574-.102c-.025-.001-.044-.006-.057-.011-.016-.002-.034-.003-.053-.003-.016 0-.03.002-.04.003-.017.006-.03.009-.037.002l-.734-1.63c.037-.031.07-.07.097-.119.022-.04.038-.089.049-.149l1.774-.246c.014.04.028.07.044.09.011.028.029.051.053.067L3.874 4.848zm-.365.085c-.036.027-.063.057-.081.09-.028.04-.043.081-.045.123h-1.47c-.016-.036-.033-.073-.048-.11-.022-.034-.05-.065-.081-.094l.824-1.64c.014 0 .028.003.044.004.014.006.03.008.053.002.011.003.025.002.04-.002.012-.002.026-.003.041-.003l.723 1.63zm-1.595.42H3.37c.011.05.03.091.057.124.02.037.045.067.08.09l-.734 1.63h-.122c-.016.002-.031.009-.044.011l-.824-1.652c.031-.023.059-.056.081-.093l.049-.11zm1.773.307l.037.002c.011.01.025.012.04.003.02.006.038.003.057-.003.02-.002.037-.006.053-.011L4.97 7.638c-.025.023-.042.048-.053.072-.016.032-.031.059-.044.08l-1.774-.233c-.011-.05-.028-.1-.049-.148-.028-.042-.06-.082-.097-.12l.734-1.63zm.354-.11c.022-.024.042-.056.064-.09.023-.03.035-.066.041-.106h2.196c.002.04.017.075.04.106.02.034.041.065.066.09L5.352 7.535c-.017.003-.034.002-.05-.002-.019-.006-.037-.01-.056-.01-.025 0-.044.004-.057.01-.016.006-.034.011-.053.011v-.008L4.041 5.549zm2.573.101c.022.006.04.012.057.012.014.009.03.011.053.002.014.007.032.003.048-.002.012-.002.026-.003.041-.003h-.011l.735 1.63c-.039.038-.07.078-.094.12-.025.048-.039.098-.04.148l-1.786.233c-.017-.023-.03-.049-.037-.08l-.049-.073 1.083-1.987zm.365-.085c.03-.023.057-.052.082-.089.022-.033.04-.074.056-.123h1.478c.014.04.03.077.049.11.014.037.042.066.081.085l-.844 1.66c-.017-.006-.032-.008-.045-.011h-.121l-.736-1.632zM6.988.738L8.79 2.114c-.008.023-.014.048-.017.072-.008.032-.01.059-.01.08-.003.018-.002.03.002.035.006.012.008.023.008.038v-.012l-.67.31c-.038-.044-.083-.085-.133-.118-.057-.031-.117-.047-.179-.047h-.036c-.02.003-.034.009-.041.012h.008L6.98.75V.75c0-.007.001-.01.008-.01zm-.41.072c.022.012.046.02.073.02.022.007.046.01.073.01.011.006.025.002.041-.003.008-.002.02-.003.036-.003l.747 1.733c-.035.02-.061.045-.077.076-.022.032-.04.065-.053.098l-1.782-.246c-.002-.037-.01-.074-.025-.11-.016-.037-.034-.069-.052-.094L6.578.81zM4.147.526h2.195c.002.029.012.056.029.08.014.032.03.059.049.081L5.38 2.152c-.019-.002-.04-.006-.06-.011l-.074-.003c-.03 0-.058.002-.081.003-.025.006-.048.014-.07.026v-.012L4.07.69c.014-.023.033-.048.049-.076.014-.02.022-.048.028-.086V.526zM3.765.84c.022 0 .047-.002.077-.009.022-.002.047-.009.07-.02l1.03 1.478c-.028.026-.048.057-.06.093-.018.037-.026.074-.03.11l-1.781.247-.049-.098c-.025-.03-.048-.056-.069-.076L3.696.832l.028.003c.011.009.025.011.04.002l.001.003zM3.509.738v.01c0 .005.003.008.011.002l-.747 1.732-.032-.011h-.037c-.068 0-.127.014-.178.046-.057.034-.103.074-.134.119l-.678-.31c.005-.002.01-.012.012-.03v-.038l-.012-.08c-.008-.024-.014-.044-.016-.064L3.509.738zM1.638 2.522l.678.297c-.009.017-.011.032-.011.042v.043c-.003.057.008.111.036.161.022.06.055.105.102.136l-.824 1.64H1.598l-.146-2.183c.037-.012.074-.031.11-.06.03-.023.057-.048.077-.076h-.001zm-.373 5.176L.61 5.6c.04-.023.077-.06.11-.106.026-.036.048-.083.065-.14h.353c.018.068.05.128.097.178.043.054.096.095.158.119h.008l-.137 2.047zm-.126-2.552H.786c-.006-.05-.026-.1-.057-.149-.039-.041-.075-.077-.11-.106l.646-2.09.138 2.048c-.068.029-.124.069-.167.118-.047.054-.079.114-.097.179zm.312 2.696l.146-2.182h.02l.824 1.639c-.047.04-.08.085-.101.136-.028.057-.04.115-.037.174v.034c0 .011.003.023.011.038l-.678.297c-.027-.033-.054-.062-.08-.085-.031-.015-.067-.034-.106-.05h.001zm2.058 1.92L1.7 8.397c.002-.023.008-.046.016-.072.005-.023.01-.053.012-.085v-.038l-.012-.043v.012l.67-.31c.034.049.079.088.134.119.053.032.113.046.178.046h.041c.008 0 .02-.002.036-.011l.747 1.732-.01.012-.002.001zm.402-.073c-.022-.002-.046-.009-.069-.02-.03-.002-.056-.006-.077-.01-.017 0-.03.003-.04.004-.017.006-.03.008-.037.002h.008l-.743-1.732c.023-.02.045-.045.07-.077.013-.026.032-.06.048-.097h.009l1.774.233c.001.043.01.082.028.115.014.037.033.071.06.102l-.178.246-.853 1.234zm2.431.285H4.146c-.006-.024-.014-.053-.028-.085-.017-.032-.033-.057-.049-.077l1.027-1.486c.023.017.045.026.07.026.022.006.05.009.08.003.023.002.047.001.078-.003.022 0 .047-.009.077-.026h-.009L6.42 9.812c-.02.03-.035.057-.048.08-.017.031-.026.058-.029.081zm.46-.306c-.018.003-.03.002-.037-.003-.017-.002-.03-.002-.041-.002-.028.002-.052.006-.073.008-.028.012-.052.02-.073.02L5.546 8.215c.023-.03.046-.065.065-.102.014-.033.023-.072.025-.114l1.782-.234c.014.037.03.069.053.093.02.032.04.059.065.081l-.714 1.669-.02.06zm.186.093h-.009V9.75L7 9.699l.722-1.682c.002.01.014.012.033.012h.036c.062 0 .122-.015.179-.043.05-.023.095-.06.134-.114v-.01l.864.391-1.98 1.508zm1.197-2.08c-.002-.015-.001-.026.003-.038.002-.007.002-.018.002-.035-.002-.061-.014-.118-.036-.17-.028-.05-.062-.097-.102-.14l.836-1.647h.014l.15 2.429-.867-.4zm.922-2.043c.061-.023.117-.06.166-.11.04-.045.07-.103.085-.174h.345c.014.057.035.104.065.14.025.046.063.082.11.106l-.646 2.098-.125-2.06z" transform="translate(-50 -134) translate(50 134) translate(5.75 5.75)"/>
                </g>
            </g>
        </g>
    </g>
</svg>
