<svg xmlns="http://www.w3.org/2000/svg" width="22" height="22" viewBox="0 0 22 22">
    <defs>
        <radialGradient id="myko81zj3a" cx="50%" cy="50%" r="50%" fx="50%" fy="50%">
            <stop offset="0%" stop-color="#008471"/>
            <stop offset="100%" stop-color="#103051"/>
        </radialGradient>
    </defs>
    <g fill="none" fill-rule="evenodd">
        <g>
            <g transform="translate(-50 -50) translate(50 50)">
                <circle cx="11" cy="11" r="10" fill="url(#myko81zj3a)" stroke="#00F6D2" stroke-width="2"/>
                <g fill="#FFF">
                    <g>
                        <path d="M5.626 0l5.624 9.75H5.625V8.122h2.87L5.626 3.065V0z" transform="translate(5.4 5.35)"/>
                        <path d="M.001 0l5.624 9.75H0V8.122h2.87L.001 3.065V0z" transform="translate(5.4 5.35) matrix(-1 0 0 1 5.625 0)"/>
                        <path d="M5.625 4.32L5.625 7.528 3.846 7.531z" transform="translate(5.4 5.35)"/>
                        <path d="M7.404 4.32L7.404 7.528 5.625 7.531z" transform="translate(5.4 5.35) matrix(-1 0 0 1 13.03 0)"/>
                    </g>
                    <path d="M0 5.61L6 3 6 6 0 5.878z" transform="translate(5.4 5.35) matrix(-1 0 0 1 6 0)"/>
                    <path d="M6 5.61L12 3 12 6 6 5.878z" transform="translate(5.4 5.35)"/>
                </g>
            </g>
        </g>
    </g>
</svg>
